<?xml version="1.0" encoding="UTF-8" standalone="no"?>
<!-- Generator: Adobe Illustrator 15.0.0, SVG Export Plug-In . SVG Version: 6.00 Build 0)  -->

<svg
   xmlns:dc="http://purl.org/dc/elements/1.1/"
   xmlns:cc="http://creativecommons.org/ns#"
   xmlns:rdf="http://www.w3.org/1999/02/22-rdf-syntax-ns#"
   xmlns:svg="http://www.w3.org/2000/svg"
   xmlns="http://www.w3.org/2000/svg"
   xmlns:sodipodi="http://sodipodi.sourceforge.net/DTD/sodipodi-0.dtd"
   xmlns:inkscape="http://www.inkscape.org/namespaces/inkscape"
   version="1.1"
   id="Layer_1"
   x="0px"
   y="0px"
   width="64"
   height="64"
   viewBox="0 0 64 64"
   xml:space="preserve"
   sodipodi:docname="ICON.svg"
   inkscape:version="0.92.4 (5da689c313, 2019-01-14)"
   inkscape:export-filename="ICON.png"
   inkscape:export-xdpi="96"
   inkscape:export-ydpi="96"><metadata
   id="metadata847"><rdf:RDF><cc:Work
       rdf:about=""><dc:format>image/svg+xml</dc:format><dc:type
         rdf:resource="http://purl.org/dc/dcmitype/StillImage" /><dc:title /></cc:Work></rdf:RDF></metadata><defs
   id="defs845" /><sodipodi:namedview
   pagecolor="#ffffff"
   bordercolor="#666666"
   borderopacity="1"
   objecttolerance="10"
   gridtolerance="10"
   guidetolerance="10"
   inkscape:pageopacity="0"
   inkscape:pageshadow="2"
   inkscape:window-width="1842"
   inkscape:window-height="1051"
   id="namedview843"
   showgrid="false"
   inkscape:pagecheckerboard="true"
   inkscape:zoom="13.734375"
   inkscape:cx="32.120275"
   inkscape:cy="31.88671"
   inkscape:window-x="-9"
   inkscape:window-y="-9"
   inkscape:window-maximized="1"
   inkscape:current-layer="Layer_1" />


<g
   id="g1403"><path
     sodipodi:nodetypes="sscccccssscccccccccccssscccccssscc"
     inkscape:connector-curvature="0"
     class="st0"
     d="m 63.999999,26.666665 c 0,14.704 -14.354526,26.666667 -31.999999,26.666667 -1.093053,0 -2.174316,-0.04622 -3.238737,-0.136889 L 18.526315,63.999999 V 47.011554 l 3.576807,6.483868 -6.945227,-4.211868 C 6.0766315,44.575999 0,36.216888 0,26.666665 0,11.962665 14.354526,-1.8e-6 32,-1.8e-6 c 17.645473,0 31.999999,11.9626668 31.999999,26.6666668 z m -37.052631,1.777778 h -6.736842 v 3.555556 h 6.736842 z m 0,-7.111111 h -6.736842 v 3.555555 h 6.736842 z m 10.105263,7.111111 h 3.368421 c 3.715368,0 6.736842,-3.189333 6.736842,-7.111111 0,-3.921778 -3.021474,-7.111111 -6.736842,-7.111111 H 33.68421 V 39.11111 h 3.368421 z m 0,-10.666667 h 3.368421 c 1.857684,0 3.368421,1.594667 3.368421,3.555556 0,1.960889 -1.510737,3.555555 -3.368421,3.555555 h -3.368421 z"
     style="opacity:1;fill:#ffffff;fill-opacity:1;stroke-width:1"
     id="path1398" /><ellipse
     style="fill:#ffbdd8;stroke-width:1"
     ry="16"
     rx="21.894737"
     cy="26.666666"
     cx="32"
     class="stshockcolor"
     id="268154893_shock_x5F_color_grid" /><path
     id="path840"
     style="opacity:1;fill:#231f20;stroke-width:1"
     d="m 63.999999,26.666665 c 0,14.704 -14.354526,26.666667 -31.999999,26.666667 -1.093053,0 -2.174316,-0.04622 -3.238737,-0.136889 L 18.526315,63.999999 V 47.011554 c 1.086316,0.469334 2.204632,0.896 3.368421,1.251556 v 7.152 l 5.637053,-5.950222 c 1.458526,0.188444 2.944,0.312889 4.468211,0.312889 15.787789,0 28.631578,-10.368001 28.631578,-23.111112 C 60.631578,13.923554 47.787789,3.5555538 32,3.5555538 c -15.78779,0 -28.631579,10.3680002 -28.631579,23.1111112 0,7.656889 4.6585262,14.430223 11.789474,18.631112 l 3.36842,1.713777 0.04726,4.35041 -3.415685,-2.07841 C 6.0766315,44.575999 0,36.216888 0,26.666665 0,11.962665 14.354526,-1.8e-6 32,-1.8e-6 c 17.645473,0 31.999999,11.9626668 31.999999,26.6666668 z m -37.052631,1.777778 h -6.736842 v 3.555556 h 6.736842 z m 0,-7.111111 h -6.736842 v 3.555555 h 6.736842 z m 10.105263,7.111111 h 3.368421 c 3.715368,0 6.736842,-3.189333 6.736842,-7.111111 0,-3.921778 -3.021474,-7.111111 -6.736842,-7.111111 H 33.68421 V 39.11111 h 3.368421 z m 0,-10.666667 h 3.368421 c 1.857684,0 3.368421,1.594667 3.368421,3.555556 0,1.960889 -1.510737,3.555555 -3.368421,3.555555 h -3.368421 z"
     class="st0"
     inkscape:connector-curvature="0"
     sodipodi:nodetypes="ssccccccssssccccssscccccccccccssscccccssscc" /></g>
</svg>